<svg width="540" height="529" viewBox="0 0 540 529" fill="none" xmlns="http://www.w3.org/2000/svg">
<path d="M0 247H49.5V119C49.5 80.3401 80.8401 49 119.5 49H230V0H126C56.4121 0 0 56.4121 0 126V247Z" fill="#018AE6"/>
<path d="M247 529V479.5H119C80.3401 479.5 49 448.16 49 409.5L49 299H0L0 403C0 472.588 56.4121 529 126 529H247Z" fill="#018AE6"/>
<path d="M540 282H490.5V410C490.5 448.66 459.16 480 420.5 480H310V529H414C483.588 529 540 472.588 540 403V282Z" fill="#018AE6"/>
<path d="M293 0V49.5L421 49.5C459.66 49.5 491 80.8401 491 119.5V230H540V126C540 56.4121 483.588 0 414 0L293 0Z" fill="#018AE6"/>
<circle cx="270.5" cy="264.5" r="160.5" fill="#FFB703" stroke="#000C14" stroke-width="20"/>
<path d="M309.125 194.424H230.22L193.803 256.223L232.427 324.644H312.987L347.197 261.741L309.125 194.424Z" fill="#FFB703" stroke="#FFB703"/>
<path d="M267 100L174 254" stroke="#000C14" stroke-width="20"/>
<path d="M416 187L217 187" stroke="#000C14" stroke-width="20"/>
<path d="M412 343L323 184" stroke="#000C14" stroke-width="20"/>
<path d="M279 427.913L366.181 269" stroke="#000C14" stroke-width="20"/>
<path d="M133 343L323 343" stroke="#000C14" stroke-width="20"/>
<path d="M133 179L222 342" stroke="#000C14" stroke-width="20"/>
<path d="M327 229.031C322.808 230.896 318.304 232.155 313.57 232.725C318.455 229.791 322.11 225.174 323.852 219.736C319.262 222.472 314.239 224.397 309.001 225.429C305.478 221.655 300.812 219.153 295.728 218.312C290.643 217.472 285.424 218.339 280.881 220.78C276.338 223.221 272.725 227.099 270.603 231.811C268.481 236.524 267.969 241.807 269.146 246.842C259.847 246.373 250.749 243.948 242.444 239.722C234.138 235.497 226.811 229.566 220.938 222.315C218.929 225.792 217.775 229.823 217.775 234.115C217.772 237.98 218.721 241.785 220.535 245.193C222.35 248.601 224.975 251.508 228.178 253.654C224.464 253.535 220.832 252.528 217.584 250.716V251.019C217.584 256.439 219.452 261.692 222.872 265.887C226.291 270.082 231.052 272.96 236.346 274.034C232.901 274.969 229.289 275.107 225.783 274.437C227.276 279.1 230.186 283.178 234.104 286.1C238.022 289.022 242.752 290.641 247.633 290.731C239.348 297.257 229.116 300.798 218.583 300.782C216.717 300.783 214.853 300.673 213 300.455C223.691 307.353 236.137 311.014 248.848 311C291.875 311 315.397 275.238 315.397 244.222C315.397 243.214 315.372 242.197 315.327 241.189C319.902 237.869 323.852 233.757 326.99 229.047L327 229.031Z" fill="#000C14"/>
</svg>
