<svg width="540" height="529" viewBox="0 0 540 529" fill="none" xmlns="http://www.w3.org/2000/svg">
<path d="M0 247H49.5V119C49.5 80.3401 80.8401 49 119.5 49H230V0H126C56.4121 0 0 56.4121 0 126V247Z" fill="#018AE6"/>
<path d="M247 529V479.5H119C80.3401 479.5 49 448.16 49 409.5L49 299H0L0 403C0 472.588 56.4121 529 126 529H247Z" fill="#018AE6"/>
<path d="M540 282H490.5V410C490.5 448.66 459.16 480 420.5 480H310V529H414C483.588 529 540 472.588 540 403V282Z" fill="#018AE6"/>
<path d="M293 0V49.5L421 49.5C459.66 49.5 491 80.8401 491 119.5V230H540V126C540 56.4121 483.588 0 414 0L293 0Z" fill="#018AE6"/>
<circle cx="270.5" cy="264.5" r="148.5" fill="#FFB703" stroke="#018AE6" stroke-width="20"/>
<path d="M306.406 199.356H233.055L199.201 256.806L235.107 320.411H309.997L341.799 261.935L306.406 199.356Z" fill="#FFB703" stroke="#FFB703"/>
<path d="M279.22 111.129L192.019 255.78" stroke="#018AE6" stroke-width="13"/>
<path d="M405.405 192.175L231.003 192.175" stroke="#018AE6" stroke-width="13"/>
<path d="M398.223 348.11L308.971 189.097" stroke="#018AE6" stroke-width="13"/>
<path d="M267.935 411.715L348.981 263.987" stroke="#018AE6" stroke-width="13"/>
<path d="M127.388 327.592H312.049" stroke="#018AE6" stroke-width="13"/>
<path d="M153.036 184.994L231.003 327.592" stroke="#018AE6" stroke-width="13"/>
<path d="M319.23 233.469C315.608 235.073 311.717 236.157 307.627 236.647C311.847 234.123 315.005 230.15 316.51 225.471C312.545 227.825 308.206 229.482 303.68 230.37C300.637 227.122 296.606 224.969 292.213 224.246C287.821 223.523 283.312 224.269 279.387 226.369C275.463 228.47 272.341 231.806 270.508 235.861C268.675 239.916 268.233 244.462 269.25 248.794C261.215 248.39 253.356 246.303 246.181 242.668C239.006 239.032 232.676 233.929 227.602 227.69C225.867 230.682 224.869 234.15 224.869 237.843C224.867 241.168 225.687 244.442 227.254 247.375C228.822 250.308 231.09 252.808 233.856 254.655C230.648 254.553 227.51 253.686 224.704 252.127V252.387C224.704 257.051 226.318 261.571 229.272 265.18C232.227 268.79 236.34 271.266 240.913 272.19C237.937 272.995 234.816 273.114 231.787 272.537C233.078 276.55 235.591 280.058 238.976 282.572C242.361 285.086 246.448 286.479 250.664 286.557C243.506 292.172 234.667 295.219 225.568 295.205C223.956 295.206 222.345 295.112 220.744 294.923C229.981 300.859 240.733 304.009 251.714 303.997C288.885 303.997 309.206 273.226 309.206 246.539C309.206 245.672 309.184 244.797 309.145 243.93C313.098 241.073 316.51 237.535 319.221 233.482L319.23 233.469V233.469Z" fill="white"/>
</svg>
